<svg xmlns="http://www.w3.org/2000/svg" xmlns:xlink="http://www.w3.org/1999/xlink" viewBox="0,0,256,256" width="64px" height="64px" fill-rule="nonzero"><g fill="#ffffff" fill-rule="nonzero" stroke="none" stroke-width="1" stroke-linecap="butt" stroke-linejoin="miter" stroke-miterlimit="10" stroke-dasharray="" stroke-dashoffset="0" font-family="none" font-weight="none" font-size="none" text-anchor="none" style="mix-blend-mode: normal"><g transform="scale(8,8)"><path d="M7.83789,4.11133c-0.31518,-0.02651 -0.62711,-0.02065 -0.93359,0.01563c-1.77778,0.2104 -3.33033,1.44734 -3.87305,3.24609c-0.02241,0.04985 -0.04071,0.10146 -0.05469,0.1543c-0.00142,0.00496 -0.00249,0.01066 -0.00391,0.01563c-0.00105,0.00405 -0.00286,0.00766 -0.00391,0.01172c-0.00214,0.01103 -0.00409,0.0221 -0.00586,0.0332c-1.23286,4.34973 -1.23032,10.6912 -0.26562,15.21289c0.25998,1.21832 1.00074,2.32645 2.17578,2.81836c0.00065,0 0.0013,0 0.00195,0c1.38847,0.58079 3.14899,0.63847 4.82813,-0.0918c0.29881,-0.12933 0.51595,-0.39603 0.58203,-0.71484c0.40094,-1.93986 0.53094,-4.63961 0.51758,-7.42773c1.3011,0.90934 2.64702,1.71314 3.94336,2.33203c0.7938,0.38004 1.71402,0.38004 2.50781,0c1.29634,-0.61889 2.64226,-1.4227 3.94336,-2.33203c-0.01337,2.78812 0.11664,5.48788 0.51758,7.42773c0.06608,0.31882 0.28322,0.58551 0.58203,0.71484c1.67914,0.73026 3.43966,0.67258 4.82813,0.0918c0.00065,0 0.0013,0 0.00195,0c1.17504,-0.49191 1.9158,-1.60004 2.17578,-2.81836c0.96057,-4.50236 0.9651,-10.80625 -0.25195,-15.1543c-0.00507,-0.03089 -0.01159,-0.06152 -0.01953,-0.0918c-0.00238,-0.00929 -0.00538,-0.01809 -0.00781,-0.02734c-0.00968,-0.03644 -0.02142,-0.07231 -0.03516,-0.10742c-0.69279,-2.39279 -3.17697,-3.79759 -5.60156,-3.17187c-0.13519,0.01709 -0.26546,0.06162 -0.38281,0.13086c-2.57478,1.08717 -4.77272,3.12213 -7.00391,5.26562c-2.23304,-2.14527 -4.43222,-4.18304 -7.00977,-5.26953c-0.11485,-0.06596 -0.24165,-0.10844 -0.37305,-0.125c-0.25957,-0.06716 -0.52052,-0.11691 -0.7793,-0.13867zM7.65039,6.11328c0.04859,0.00445 0.09934,0.02019 0.14844,0.02734c0.03551,0.07798 0.06868,0.12803 0.0957,0.23242c0.10265,0.39647 0.21321,0.97676 0.31445,1.67188c0.1957,1.34363 0.36229,3.1365 0.4707,5.06055c-0.0829,-0.07669 -0.17872,-0.14963 -0.25977,-0.22656c-2.01235,-1.91021 -3.28241,-3.94108 -3.41406,-4.96094c0.38629,-1.19104 1.43078,-1.91585 2.64453,-1.80469zM24.34961,6.11328c1.21315,-0.11103 2.25822,0.61387 2.64453,1.80469c-0.13165,1.01986 -1.40172,3.05073 -3.41406,4.96094c-0.08104,0.07693 -0.17687,0.14987 -0.25977,0.22656c0.10841,-1.92405 0.27501,-3.71692 0.4707,-5.06055c0.10124,-0.69511 0.2118,-1.27541 0.31445,-1.67187c0.02703,-0.10439 0.06019,-0.15444 0.0957,-0.23242c0.04907,-0.00715 0.09987,-0.0229 0.14844,-0.02734zM10.10742,7.26758c1.69699,1.12174 3.39689,2.71481 5.19922,4.45312c0.3872,0.37249 0.99952,0.37249 1.38672,0c1.80232,-1.73831 3.50223,-3.33138 5.19922,-4.45312c-0.02657,0.16336 -0.05446,0.31242 -0.08008,0.48828c-0.21555,1.4799 -0.3916,3.38506 -0.50195,5.43359c-0.02905,0.53925 -0.04068,1.09843 -0.06055,1.65039c-1.58607,1.22191 -3.29018,2.32404 -4.85742,3.07227c-0.00065,0 -0.0013,0 -0.00195,0c-0.2422,0.11596 -0.53905,0.11596 -0.78125,0c-0.00065,0 -0.0013,0 -0.00195,0c-1.56718,-0.74823 -3.27136,-1.85036 -4.85742,-3.07227c-0.01987,-0.55196 -0.0315,-1.11114 -0.06055,-1.65039c-0.11036,-2.04853 -0.28641,-3.95369 -0.50195,-5.43359c-0.02561,-0.17586 -0.05351,-0.32492 -0.08008,-0.48828zM4.28516,11.25195c0.72396,1.03203 1.68262,2.05555 2.75781,3.07617c0.54788,0.52007 1.13238,1.02977 1.73828,1.52539c0.05639,2.98521 -0.06313,5.94694 -0.40039,7.94922c-0.99724,0.28866 -2.00101,0.27746 -2.73437,-0.0293c-0.43496,-0.18209 -0.84416,-0.69499 -0.99219,-1.38867c-0.66968,-3.13889 -0.81395,-7.52492 -0.36914,-11.13281zM27.71484,11.25195c0.44481,3.60789 0.30054,7.99393 -0.36914,11.13281c-0.14802,0.69368 -0.55722,1.20658 -0.99219,1.38867c-0.73336,0.30676 -1.73713,0.31795 -2.73437,0.0293c-0.33726,-2.00228 -0.45678,-4.96401 -0.40039,-7.94922c0.6059,-0.49562 1.1904,-1.00532 1.73828,-1.52539c1.07519,-1.02062 2.03385,-2.04415 2.75781,-3.07617z"></path></g></g></svg>